<?xml version="1.0" encoding="UTF-8"?> <!-- Generator: Adobe Illustrator 15.1.0, SVG Export Plug-In . SVG Version: 6.00 Build 0) --> <svg xmlns="http://www.w3.org/2000/svg" xmlns:xlink="http://www.w3.org/1999/xlink" id="Layer_1" x="0px" y="0px" width="78.85px" height="78.849px" viewBox="0 0 78.85 78.849" xml:space="preserve"> <g> <path fill="#142667" d="M69.948,43.241H52.144v-3.815c0-4.325-3.104-7.938-7.198-8.735c0.731-0.769,1.303-1.69,1.665-2.711h4.261 c0.703,0,1.272-0.569,1.272-1.272v-5.086c0-0.704-0.569-1.272-1.272-1.272H49.6c0-3.823-2.124-7.16-5.253-8.897 c0.108-0.416,0.165-0.844,0.165-1.277c0-2.806-2.28-5.087-5.087-5.087c-2.805,0-5.087,2.281-5.087,5.087 c0,0.434,0.058,0.862,0.166,1.277c-3.129,1.737-5.253,5.072-5.253,8.897v0.234c-1.477,0.526-2.544,1.926-2.544,3.581 c0,2.104,1.713,3.815,3.816,3.815h1.717c0.362,1.021,0.934,1.943,1.665,2.711c-4.095,0.797-7.198,4.41-7.198,8.735v3.815H8.902 c-0.703,0-1.271,0.568-1.271,1.271V49.6c0,0.703,0.568,1.272,1.271,1.272h1.271v26.708c0,0.703,0.569,1.27,1.273,1.27h5.086 c0.703,0,1.272-0.567,1.272-1.27v-3.816h43.239v3.816c0,0.703,0.568,1.27,1.272,1.27h5.087c0.703,0,1.271-0.567,1.271-1.27V50.872 h1.272c0.703,0,1.271-0.569,1.271-1.272v-5.087C71.219,43.809,70.651,43.241,69.948,43.241z M35.61,33.066h3.814h3.815l-1.41,1.879 l-1.507-1.507c-0.247-0.248-0.572-0.373-0.898-0.373c-0.325,0-0.65,0.125-0.898,0.373l-1.507,1.507L35.61,33.066z M39.425,30.523 c-2.805,0-5.087-2.282-5.087-5.087v-2.543h3.815c2.078,0,3.927-1.002,5.087-2.547c0.359,0.479,0.795,0.897,1.271,1.259v3.832 h-2.543v2.543h1.836C42.923,29.492,41.301,30.523,39.425,30.523z M49.6,25.436h-2.544v-2.543H49.6V25.436z M36.882,10.174 c0-1.402,1.141-2.543,2.543-2.543c1.403,0,2.544,1.141,2.544,2.543c0,0.11-0.027,0.216-0.042,0.324 c-0.803-0.205-1.636-0.324-2.502-0.324c-0.864,0-1.698,0.12-2.501,0.324C36.909,10.391,36.882,10.285,36.882,10.174z M39.425,12.717c4.136,0,7.511,3.306,7.628,7.413c-1.479-0.527-2.541-1.94-2.541-3.597c0-0.704-0.568-1.272-1.271-1.272 s-1.271,0.568-1.271,1.272c0,2.103-1.712,3.814-3.815,3.814h-6.358C31.795,16.14,35.217,12.717,39.425,12.717z M30.523,25.436 c-0.702,0-1.272-0.57-1.272-1.272c0-0.702,0.57-1.271,1.272-1.271h1.271v2.543H30.523z M29.251,39.425 c0-2.535,1.5-4.709,3.651-5.731l2.962,3.95c0.221,0.295,0.559,0.48,0.927,0.505c0.383,0.034,0.729-0.108,0.99-0.369l1.644-1.644 l1.646,1.644c0.238,0.241,0.562,0.373,0.898,0.373c0.029,0,0.061-0.001,0.091-0.004c0.366-0.026,0.705-0.209,0.927-0.505 l2.962-3.95C48.1,34.716,49.6,36.89,49.6,39.425v3.815h-2.544v-5.087h-2.544v5.087H34.338v-5.087h-2.543v5.087h-2.544V39.425z M66.133,76.307h-2.544v-3.815c0-0.704-0.568-1.271-1.271-1.271H16.533c-0.703,0-1.271,0.568-1.271,1.271v3.815h-2.544V50.872 h53.415V76.307z M68.676,48.327H10.174v-2.543h58.502V48.327z"></path> <path fill="#142667" d="M75.035,0H59.773c-2.104,0-3.814,1.712-3.814,3.815v15.262c0,2.103,1.711,3.815,3.814,3.815h3.815v3.814 c0,0.514,0.309,0.979,0.785,1.175c0.157,0.066,0.323,0.097,0.486,0.097c0.33,0,0.657-0.129,0.899-0.372l4.715-4.714h4.561 c2.104,0,3.814-1.712,3.814-3.815V3.815C78.85,1.712,77.139,0,75.035,0z M76.307,19.077c0,0.702-0.569,1.271-1.271,1.271h-5.087 c-0.339,0-0.661,0.134-0.899,0.373l-2.916,2.917v-2.017c0-0.704-0.569-1.272-1.272-1.272h-5.087c-0.702,0-1.271-0.569-1.271-1.271 V3.815c0-0.702,0.569-1.271,1.271-1.271h15.262c0.702,0,1.271,0.569,1.271,1.271V19.077z"></path> <path fill="#142667" d="M61.045,10.174h2.544v2.543h-2.544V10.174z"></path> <path fill="#142667" d="M66.133,10.174h2.543v2.543h-2.543V10.174z"></path> <path fill="#142667" d="M71.219,10.174h2.544v2.543h-2.544V10.174z"></path> <path fill="#142667" d="M13.091,27.607c0.242,0.243,0.569,0.372,0.899,0.372c0.164,0,0.329-0.03,0.486-0.097 c0.477-0.196,0.785-0.661,0.785-1.175v-3.814h3.814c2.104,0,3.816-1.712,3.816-3.815V3.815C22.893,1.712,21.181,0,19.076,0H3.815 C1.712,0,0,1.712,0,3.815v15.262c0,2.103,1.712,3.815,3.815,3.815h4.561L13.091,27.607z M2.544,19.077V3.815 c0-0.702,0.569-1.271,1.271-1.271h15.261c0.703,0,1.272,0.569,1.272,1.271v15.262c0,0.702-0.569,1.271-1.272,1.271H13.99 c-0.703,0-1.272,0.569-1.272,1.272v2.017l-2.916-2.917c-0.238-0.239-0.562-0.373-0.899-0.373H3.815 C3.113,20.348,2.544,19.779,2.544,19.077L2.544,19.077z"></path> <path fill="#142667" d="M15.262,10.174h2.544v2.543h-2.544V10.174z"></path> <path fill="#142667" d="M10.174,10.174h2.544v2.543h-2.544V10.174z"></path> <path fill="#142667" d="M5.088,10.174h2.543v2.543H5.088V10.174z"></path> </g> </svg> 