<?xml version="1.0" encoding="UTF-8"?> <!-- Generator: Adobe Illustrator 15.1.0, SVG Export Plug-In . SVG Version: 6.00 Build 0) --> <svg xmlns="http://www.w3.org/2000/svg" xmlns:xlink="http://www.w3.org/1999/xlink" id="Layer_1" x="0px" y="0px" width="46.471px" height="77.774px" viewBox="0 0 46.471 77.774" xml:space="preserve"> <g> <g> <path fill="#142667" d="M41.303,50.123l-6.359-2.776l-3.477-3.477c-0.232-0.232-0.532-0.357-0.837-0.377v-2.049 c2.971-1.953,5.146-5.058,5.844-8.758c0.342,0.016,0.688-0.018,1.028-0.098c1.666-0.395,2.876-1.992,2.876-3.797v-0.95 c0-1.319-0.655-2.506-1.669-3.203c0.299-1.182,0.45-2.391,0.45-3.608c0-5.396-2.916-10.148-7.312-12.877 C31.799,3.65,27.955,0,23.234,0c-4.72,0-8.563,3.65-8.612,8.153c-4.395,2.729-7.312,7.482-7.312,12.877 c0,1.214,0.151,2.419,0.447,3.598c-1.014,0.693-1.666,1.886-1.666,3.228v0.936c0,1.806,1.21,3.403,2.876,3.797 c0.341,0.08,0.687,0.113,1.028,0.098c0.698,3.7,2.873,6.805,5.844,8.758v2.049c-0.305,0.02-0.604,0.145-0.837,0.377l-3.477,3.477 l-6.359,2.776c-3.235,1.413-5.309,4.731-5.159,8.259l0.769,18.146c0.029,0.7,0.606,1.247,1.301,1.247c0.019,0,0.037,0,0.056-0.001 c0.719-0.03,1.276-0.638,1.246-1.356L2.61,58.271c-0.05-1.169,0.254-2.304,0.825-3.28l3.419,4.102 c1.08,1.297,1.675,2.939,1.675,4.627v12.752c0,0.721,0.583,1.303,1.302,1.303c0.72,0,1.303-0.582,1.303-1.303V63.72 c0-2.295-0.81-4.53-2.278-6.293l-3.634-4.362c0.309-0.212,0.637-0.401,0.987-0.554l5.543-2.42l3.916,6.357 c0.388,0.628,1.026,1.053,1.755,1.168c0.131,0.021,0.262,0.031,0.393,0.031c0.595,0,1.176-0.212,1.636-0.604l2.481-2.118v21.546 c0,0.721,0.583,1.303,1.303,1.303c0.719,0,1.303-0.582,1.303-1.303V54.926l2.481,2.118c0.46,0.393,1.04,0.604,1.635,0.604 c0.131,0,0.263-0.011,0.394-0.031c0.729-0.114,1.367-0.54,1.754-1.168l3.917-6.357l5.543,2.42 c0.351,0.152,0.679,0.342,0.987,0.555l-3.634,4.361c-1.47,1.763-2.279,3.998-2.279,6.293v12.753c0,0.72,0.584,1.302,1.303,1.302 c0.72,0,1.303-0.582,1.303-1.302V63.72c0-1.687,0.595-3.33,1.675-4.626l3.419-4.103c0.571,0.977,0.874,2.111,0.825,3.28 l-0.769,18.146c-0.031,0.719,0.527,1.326,1.246,1.357c0.019,0,0.037,0,0.056,0c0.694,0,1.271-0.547,1.301-1.247l0.769-18.146 C46.612,54.854,44.539,51.536,41.303,50.123z M23.235,2.604c2.771,0,5.108,1.768,5.8,4.163c-1.798-0.679-3.754-1.052-5.8-1.052 s-4.002,0.373-5.8,1.052C18.126,4.372,20.464,2.604,23.235,2.604z M12.546,32.15c-0.229-1.251-1.39-2.16-2.638-2.067 c-0.11,0.008-0.225-0.002-0.34-0.029c-0.496-0.118-0.871-0.661-0.871-1.262v-0.936c0-0.604,0.403-1.148,0.919-1.239 c0.435-0.077,0.851,0.083,1.114,0.426c0.239,0.312,0.558,0.535,0.923,0.645c0.533,0.161,1.121,0.066,1.573-0.253 c0.802-0.566,1.512-1.256,2.108-2.051c0.432-0.575,0.315-1.392-0.26-1.823c-0.575-0.432-1.392-0.316-1.823,0.259 c-0.296,0.394-0.629,0.751-0.994,1.069c-0.557-0.477-1.24-0.775-1.965-0.865c-0.25-0.981-0.378-1.984-0.378-2.994 c0-7.008,5.976-12.71,13.32-12.71s13.319,5.702,13.319,12.71c0,1.007-0.127,2.008-0.376,2.988 c-0.343,0.027-0.69,0.083-1.014,0.167l-0.979-0.805c-0.492-0.405-1.111-0.607-1.737-0.57c-1.915,0.113-11.72,0.372-16.749-5.647 c-0.462-0.552-1.282-0.626-1.835-0.165c-0.553,0.461-0.626,1.283-0.164,1.835c2.48,2.969,6.119,4.977,10.814,5.967 c3.595,0.758,6.791,0.685,8.042,0.613l1.528,1.256c0.42,0.345,1.01,0.395,1.48,0.121c0.221-0.121,0.96-0.235,1.283-0.171 c0.526,0.104,0.924,0.63,0.924,1.222v0.95c0,0.602-0.375,1.145-0.871,1.262c-0.115,0.027-0.229,0.037-0.34,0.029 c-1.248-0.091-2.408,0.816-2.638,2.066c-0.947,5.159-5.443,8.902-10.689,8.902C17.988,41.052,13.493,37.308,12.546,32.15z M17.835,54.999l-3.918-6.359l2.007-2.006l5.394,5.393L17.835,54.999z M23.235,50.261l-4.79-4.791v-2.693 c1.495,0.568,3.111,0.881,4.79,0.881s3.295-0.312,4.79-0.881v2.693L23.235,50.261z M28.636,54.999l-3.483-2.973l5.394-5.393 l2.008,2.006L28.636,54.999z"></path> </g> </g> </svg> 