<?xml version="1.0" encoding="UTF-8"?> <!-- Generator: Adobe Illustrator 15.1.0, SVG Export Plug-In . SVG Version: 6.00 Build 0) --> <svg xmlns="http://www.w3.org/2000/svg" xmlns:xlink="http://www.w3.org/1999/xlink" id="Layer_1" x="0px" y="0px" width="79.021px" height="79.141px" viewBox="0 0 79.021 79.141" xml:space="preserve"> <g> <path fill="#142667" d="M52.229,0.425c0.674,0.466,0.833,1.116,0.817,1.912c-0.058,3.004-0.063,6.009-0.087,9.013 c-0.003,0.266-0.004,0.533-0.008,0.841c-0.881-0.007-1.689-0.014-2.59-0.021c0.011-1.256,0.021-2.523,0.031-3.892 c-0.405-0.003-0.723-0.005-1.039-0.008C38.593,8.181,27.831,8.083,17.07,8.02c-0.946-0.005-1.657-0.255-2.305-0.96 c-1.218-1.328-2.494-2.603-3.791-3.855C10.7,2.938,10.243,2.732,9.863,2.72C7.682,2.658,5.499,2.663,3.258,2.645 c-0.187,22.721-0.374,45.4-0.561,68.17c4.317,0.035,8.641,0.071,13.01,0.107c-0.007,0.896-0.015,1.706-0.022,2.64 c-0.275-0.002-0.562-0.004-0.849-0.007c-4.315-0.035-8.632-0.086-12.947-0.092C1.094,73.461,0.455,73.286,0,72.614 C0.198,48.425,0.397,24.237,0.597,0C17.808,0.142,35.019,0.283,52.229,0.425z M33.931,2.943c0.779,0.784,1.415,1.485,2.123,2.105 c0.293,0.256,0.736,0.471,1.115,0.478c4.15,0.066,8.3,0.089,12.451,0.121c0.235,0.002,0.473-0.024,0.703-0.036 c0.008-0.885,0.015-1.713,0.021-2.533C44.894,3.034,39.505,2.989,33.931,2.943z M23.649,5.435 c-0.862-0.861-1.527-1.574-2.252-2.221c-0.254-0.226-0.648-0.399-0.983-0.41c-1.746-0.054-3.495-0.048-5.243-0.059 c-0.252-0.002-0.504,0.02-0.945,0.039c0.881,0.871,1.607,1.612,2.362,2.322c0.158,0.149,0.421,0.261,0.637,0.265 C19.271,5.407,21.317,5.416,23.649,5.435z M24.97,2.824c-0.067,0.086-0.135,0.172-0.201,0.257c0.354,0.289,0.787,0.518,1.049,0.875 c0.924,1.259,2.105,1.727,3.658,1.552c1.031-0.117,2.087-0.007,3.371,0.003c-0.93-0.918-1.656-1.659-2.41-2.369 c-0.16-0.149-0.42-0.262-0.636-0.266C28.19,2.84,26.581,2.837,24.97,2.824z"></path> <path fill="#142667" d="M78.991,35.233c-0.264,1.163-0.453,2.348-0.8,3.486c-1.938,6.349-6.046,10.68-12.242,13.042 c-0.274,0.105-0.546,0.216-0.854,0.34c0.859,1.66,0.872,3.235-0.34,4.687c-0.274,0.328-0.614,0.665-0.996,0.823 c-0.579,0.242-0.709,0.589-0.712,1.181c-0.022,5.409-0.069,10.818-0.123,16.226c-0.021,2.04-1.183,3.579-2.976,4.005 c-2.558,0.608-4.862-1.188-4.881-3.865c-0.016-2.732,0.035-5.464,0.058-8.195c0.022-2.813,0.059-5.627,0.05-8.441 c-0.001-0.28-0.197-0.684-0.428-0.819c-2.012-1.182-2.659-3.214-1.648-5.329c0.046-0.097,0.085-0.197,0.115-0.264 c-1.461-0.746-2.976-1.37-4.334-2.237c-5.315-3.396-8.42-8.265-9.059-14.543c-0.916-9.026,4.006-17.164,12.439-20.39 c10.043-3.844,19.832,0.89,24.212,8.728c1.308,2.341,2.113,4.839,2.403,7.505c0.018,0.156,0.096,0.304,0.145,0.456 C79.011,32.829,79.001,34.03,78.991,35.233z M59.478,16.222c-9.36-0.078-17.12,7.552-17.188,16.902 c-0.067,9.381,7.529,17.107,16.899,17.189c9.357,0.082,17.113-7.544,17.19-16.903C76.458,24.044,68.842,16.3,59.478,16.222z M57.876,58.21c-0.036,4.386-0.071,8.707-0.106,13.009c0.885,0.007,1.713,0.014,2.524,0.021c0.035-4.367,0.07-8.669,0.107-13.009 C59.552,58.225,58.743,58.218,57.876,58.21z M59.071,55.557c0.873,0.007,1.746,0.033,2.62,0.016 c0.838-0.017,1.379-0.542,1.395-1.296c0.015-0.735-0.532-1.291-1.377-1.309c-1.69-0.036-3.384-0.05-5.075-0.041 c-0.845,0.004-1.401,0.552-1.395,1.288c0.008,0.755,0.539,1.286,1.377,1.317C57.433,55.562,58.253,55.551,59.071,55.557z M57.711,73.944c0.006,0.896-0.313,1.86,0.641,2.375c0.351,0.189,1.002,0.163,1.346-0.047c0.867-0.529,0.579-1.454,0.591-2.306 C59.425,73.958,58.621,73.952,57.711,73.944z"></path> <path fill="#142667" d="M21.706,74.675c10.195-2.327,20.289-4.63,30.476-6.956c0.199,0.857,0.382,1.643,0.589,2.529 c-1.532,0.355-3.037,0.709-4.543,1.052c-8.908,2.029-17.814,4.058-26.723,6.084c-1.364,0.31-1.871-0.003-2.174-1.333 c-1.857-8.163-3.708-16.327-5.567-24.488C11.735,42.656,9.7,33.752,7.671,24.846c-0.078-0.344-0.162-0.698-0.161-1.048 c0.003-0.833,0.548-1.175,1.284-1.342c3.537-0.803,7.07-1.621,10.605-2.427c9.014-2.055,18.027-4.106,27.041-6.158 c0.104-0.024,0.213-0.029,0.405-0.055c0.188,0.818,0.374,1.629,0.585,2.551c-12.382,2.814-24.697,5.613-37.075,8.426 C14.144,41.439,17.91,57.994,21.706,74.675z"></path> <path fill="#142667" d="M37.31,36.121c-5.521,1.258-10.914,2.487-16.308,3.714c-0.558,0.127-1.115,0.26-1.677,0.373 c-0.813,0.165-1.447-0.163-1.631-0.956c-0.793-3.398-1.564-6.801-2.303-10.21c-0.199-0.923,0.257-1.426,1.35-1.675 c3.48-0.795,6.963-1.585,10.445-2.375c3.164-0.718,6.327-1.436,9.492-2.151c0.263-0.059,0.53-0.102,0.871-0.167 c0.193,0.827,0.378,1.613,0.588,2.506c-6.641,1.518-13.242,3.026-19.93,4.555c0.581,2.558,1.15,5.069,1.741,7.673 c5.599-1.278,11.139-2.542,16.784-3.83C36.925,34.424,37.107,35.232,37.31,36.121z"></path> <path fill="#142667" d="M50.461,53.316c0.198,0.89,0.375,1.678,0.569,2.549c-9.404,2.142-18.724,4.265-28.101,6.401 c-0.202-0.87-0.386-1.66-0.589-2.541C31.715,57.589,41.04,55.464,50.461,53.316z"></path> <path fill="#142667" d="M21.756,57.137c-0.202-0.901-0.375-1.667-0.574-2.545c7.752-1.764,15.47-3.521,23.277-5.296 c0.199,0.864,0.38,1.65,0.587,2.542C37.292,53.602,29.573,55.358,21.756,57.137z"></path> <path fill="#142667" d="M24.09,67.358c-0.209-0.903-0.384-1.669-0.585-2.542c7.645-1.735,15.263-3.463,22.999-5.22 c0.196,0.847,0.382,1.653,0.588,2.544C39.413,63.883,31.795,65.611,24.09,67.358z"></path> <path fill="#142667" d="M20.011,49.46c6.875-1.561,13.652-3.098,20.556-4.665c0.192,0.842,0.376,1.65,0.58,2.544 c-6.868,1.572-13.683,3.131-20.55,4.703C20.392,51.141,20.213,50.351,20.011,49.46z"></path> <path fill="#142667" d="M27.104,45.174c-0.195-0.856-0.374-1.641-0.581-2.544c3.829-0.871,7.604-1.731,11.459-2.609 c0.199,0.87,0.38,1.659,0.582,2.54C34.766,43.427,31.004,44.285,27.104,45.174z"></path> <path fill="#142667" d="M23.952,43.203c0.208,0.904,0.383,1.671,0.582,2.538c-0.841,0.195-1.646,0.381-2.535,0.588 c-0.205-0.866-0.39-1.651-0.598-2.529C22.245,43.603,23.056,43.413,23.952,43.203z"></path> <path fill="#142667" d="M73.758,33.362c-0.035,7.94-6.574,14.387-14.534,14.33c-7.925-0.058-14.324-6.529-14.311-14.47 c0.014-7.94,6.516-14.392,14.488-14.377C67.312,18.86,73.793,25.414,73.758,33.362z M59.423,21.467 c-6.471-0.049-11.834,5.224-11.887,11.688c-0.055,6.488,5.173,11.823,11.668,11.91c6.484,0.086,11.9-5.24,11.931-11.731 C71.165,26.856,65.896,21.516,59.423,21.467z"></path> </g> </svg> 