<?xml version="1.0" encoding="UTF-8"?> <!-- Generator: Adobe Illustrator 15.1.0, SVG Export Plug-In . SVG Version: 6.00 Build 0) --> <svg xmlns="http://www.w3.org/2000/svg" xmlns:xlink="http://www.w3.org/1999/xlink" id="Layer_1" x="0px" y="0px" width="56.877px" height="68.811px" viewBox="0 0 56.877 68.811" xml:space="preserve"> <g> <g> <path fill-rule="evenodd" clip-rule="evenodd" fill="#38C1D7" d="M4.611,17.374c4.984,0,9.969,0,14.953,0c0,0.517,0,1.034,0,1.552 c-5.008,0-10.016,0-15.023,0C4.588,18.431,4.447,17.75,4.611,17.374z"></path> <path fill-rule="evenodd" clip-rule="evenodd" fill="#38C1D7" d="M21.116,20.407c-0.048,6.512,0.095,13.212-0.071,19.607 c-5.478-0.047-11.144,0.094-16.504-0.069c0-3.162,0-6.415,0-9.664c0-3.22-0.306-6.535,0-9.593C4.55,20.6,4.432,20.38,4.683,20.407 C10.16,20.407,15.639,20.407,21.116,20.407z M6.022,35.924c1.603-0.301,2.979-0.828,4.513-1.199c0-0.493,0-0.987,0-1.481 c-0.29-0.638-1.259-0.608-1.48-1.34c-0.346-1.143,0.253-2.58,0-3.949c-0.541-0.047-1.269,0.093-1.692-0.071 c0.308-2.162,1.794-4.21,4.303-4.443c0.902-0.084,2.305-0.245,3.385,0.071c2.597,0.758,1.191,5.389,1.552,8.463 c-0.701,0.799-1.98,0.886-1.552,2.751c1.598,0.308,2.929,0.882,4.515,1.199c0-4.655,0-9.311,0-13.965c-4.491,0-8.981,0-13.472,0 C5.928,26.473,6.069,31.291,6.022,35.924z M10.607,25.273c-0.52,0.275-1.028,0.816-0.988,1.129c1.316,0,2.633,0,3.949,0 c-0.045,0.495,0.094,1.175-0.07,1.552c-0.963,0-1.928,0-2.891,0c0,1.104,0,2.209,0,3.314c0.61,0.627,1.624,1.522,2.891,1.199 c0.416-0.105,1.424-0.854,1.552-1.27c0.24-0.779,0-2.069,0-3.104c0-1.053,0.106-2.1-0.141-2.963 C13.654,24.756,11.501,24.801,10.607,25.273z M12.088,34.725c0.494,0,0.987,0,1.48,0c0-0.259,0-0.517,0-0.775 c-0.493,0-0.986,0-1.48,0C12.088,34.208,12.088,34.466,12.088,34.725z M8.42,36.841c-1.126,0.316-2.544,0.401-2.397,1.621 c2.021,0,4.043,0,6.065,0c0-0.752,0-1.503,0-2.256C10.586,36.125,9.667,36.49,8.42,36.841z M17.59,36.981 c-1.295-0.364-2.485-0.902-4.021-0.775c0,0.753,0,1.504,0,2.256c1.999,0,3.997,0,5.996,0 C19.854,37.346,18.458,37.227,17.59,36.981z"></path> <path fill-rule="evenodd" clip-rule="evenodd" fill="#38C1D7" d="M22.668,20.407c4.749,0,9.498,0,14.247,0 c-0.039,0.5,0.084,1.164-0.069,1.552c-4.727,0-9.452,0-14.178,0C22.56,21.595,22.544,20.768,22.668,20.407z"></path> <path fill-rule="evenodd" clip-rule="evenodd" fill="#38C1D7" d="M22.668,23.439c7.006,0,14.013,0,21.019,0 c0,1.999,0,3.997,0,5.995c-7.03,0-14.06,0-21.089,0c0-1.928,0-3.855,0-5.783C22.591,23.551,22.586,23.451,22.668,23.439z M24.148,25.132c0,0.941,0,1.882,0,2.822c5.996-0.048,12.179,0.094,18.057-0.071c0-0.986,0-1.975,0-2.962 c-5.995,0-11.99,0-17.985,0C24.138,24.934,24.143,25.032,24.148,25.132z"></path> <path fill-rule="evenodd" clip-rule="evenodd" fill="#38C1D7" d="M4.611,41.496c4.491,0,8.981,0,13.472,0c0,0.494,0,0.987,0,1.481 c-4.515,0-9.028,0-13.542,0C4.588,42.507,4.447,41.85,4.611,41.496z"></path> <path fill-rule="evenodd" clip-rule="evenodd" fill="#38C1D7" d="M19.564,41.496c0.518,0,1.034,0,1.552,0c0,0.494,0,0.987,0,1.481 c-0.518,0-1.034,0-1.552,0C19.564,42.483,19.564,41.99,19.564,41.496z"></path> <path fill-rule="evenodd" clip-rule="evenodd" fill="#38C1D7" d="M4.683,44.458c12.978,0.048,3.537-0.094,16.398,0.071 c0,2.985,0,5.973,0,8.958c-12.884,0.117-3.656,0.117-16.54,0c0-2.938,0-5.878,0-8.817C4.537,44.55,4.593,44.488,4.683,44.458z M6.022,46.222c0,1.928,0,3.855,0,5.783c12.061,0,1.516,0,13.577,0c0-1.998,0-3.997,0-5.995c-12.037,0-1.47,0-13.507,0 C6.011,46.022,6.016,46.122,6.022,46.222z"></path> <path fill-rule="evenodd" clip-rule="evenodd" fill="#38C1D7" d="M20.455,0c2.285,0,4.569,0,6.854,0 c1.907,0.646,3.124,1.982,2.822,4.838c4.363-0.242,6.391,1.853,6.316,6.048c2.904,0.517,8.071-0.964,10.079,0.672 c2.082,1.696,1.21,7.873,1.21,11.424c0,1.996,0,4.176,0,6.316c0,2.089-0.373,4.54,0,6.182c0.241,1.061,1.646,2.424,2.15,3.494 c1.702,3.612,1.993,10.095-0.403,13.44c1.172,1.466,2.393,2.661,3.897,4.167c1.136,1.134,3.467,2.523,3.495,4.435 c0.022,1.544-2.83,4.643-4.57,4.703c-2.377,0.083-2.836-2.394-4.569-3.36c0.268,3.313-0.235,5.857-2.688,6.452 c-0.807,0-1.613,0-2.419,0c-0.532-0.315-0.616-0.922-0.537-1.211c0.373-1.376,1.756-0.077,3.091-1.074 c0.728-0.544,0.867-4.542,0.537-5.914c-0.3-1.242-1.333-1.394-2.017-2.285c-1.001,0.472-1.908,0.963-2.688,1.211 c-12.164,3.875-23.461-8.618-18.009-20.429c0.437-0.945,2.325-4.562,3.629-3.494c1.193,0.978-1.245,3.103-1.747,4.166 c-4.229,8.966,2.777,18.396,11.558,18.412c11.436,0.021,16.801-13.996,9.139-21.771c-2.804-2.845-7.924-4.952-13.17-3.226 c-1.087,0.358-2.255,1.702-3.764,0.807c-0.513-1.651,1.675-2.137,2.822-2.555c4.808-1.745,11.181-0.44,14.246,2.151 c0-3.339,0-6.993,0-10.483c0-3.499,0.308-7.009-0.403-9.945c-2.369-0.588-5.795-0.117-8.602-0.269 c-0.321,2.968-5.106,2.017-9.273,2.017c-1.856,0-7.209,0.594-7.257-0.941c-0.053-1.696,4.771-1.075,6.585-1.075 c2.837,0,5.068,0,7.526,0c0.447-2.313,0.213-5.221-1.747-5.913c-1.872-0.661-5.774-0.134-8.602-0.134 c-3.059,0-6.725-0.466-8.601,0.134c-2.059,0.657-2.205,3.25-2.016,5.913c1.667,0.142,3.921-0.494,4.031,0.941 c0.098,1.278-3.544,1.65-5.106,0.94c-0.761-0.346-0.803-1.116-1.076-1.882c-1.543,0.651-7.512-1.025-8.735,0.403 c-0.673,0.786-0.269,4.751-0.269,6.451c0,15.139-0.109,32.235,0.135,46.501c1.072,0.881,2.777,0.537,4.301,0.537 c9.408,0,18.82,0,28.76,0c1.772,0,3.717-0.261,3.764,0.94c0.026,0.69-0.229,0.666-0.672,1.076c-11.917,0-23.834,0-35.749,0 c-3.349-0.833-2.554-4.52-2.554-8.871c0-13.537,0-26.926,0-40.318c0-2.281-0.441-5.008,0.134-6.72 c1.081-3.216,7.562-1.65,11.021-2.016c-0.074-4.195,1.973-6.27,6.316-6.048C17.332,1.982,18.549,0.646,20.455,0z M27.578,2.284 c-0.627-0.468-4.85-0.55-6.586-0.269c-1.374,0.223-1.429,1.476-1.344,2.822c2.823,0,5.645,0,8.467,0 C28.148,3.928,28.184,2.735,27.578,2.284z M48.141,54.43c-0.67,1.166-1.819,1.854-2.688,2.822c2.34,2.05,4.267,4.513,6.72,6.451 c1.045-0.792,2.089-1.586,2.688-2.822C52.594,58.757,50.543,56.417,48.141,54.43z"></path> </g> </g> </svg> 