<?xml version="1.0" encoding="UTF-8"?> <!-- Generator: Adobe Illustrator 15.1.0, SVG Export Plug-In . SVG Version: 6.00 Build 0) --> <svg xmlns="http://www.w3.org/2000/svg" xmlns:xlink="http://www.w3.org/1999/xlink" id="Layer_1" x="0px" y="0px" width="95.699px" height="77.761px" viewBox="0 0 95.699 77.761" xml:space="preserve"> <g> <g> <g> <path fill="#142667" d="M91.185,43.786l-5.556-2.425l-3.036-3.037c-0.204-0.204-0.466-0.312-0.732-0.33v-1.79 c2.596-1.706,4.495-4.418,5.105-7.651c0.299,0.014,0.601-0.015,0.898-0.085c1.455-0.344,2.512-1.74,2.512-3.317v-0.83 c0-1.153-0.572-2.19-1.457-2.798c0.26-1.032,0.393-2.088,0.393-3.152c0-4.713-2.547-8.865-6.389-11.249 C82.882,3.188,79.524,0,75.401,0c-4.125,0-7.482,3.188-7.523,7.123c-3.84,2.383-6.389,6.536-6.389,11.249 c0,1.061,0.133,2.114,0.391,3.143c-0.885,0.605-1.455,1.647-1.455,2.82v0.817c0,1.578,1.057,2.973,2.514,3.317 c0.297,0.07,0.598,0.099,0.896,0.085c0.611,3.233,2.51,5.945,5.105,7.651v1.79c-0.266,0.017-0.527,0.126-0.73,0.33l-3.037,3.037 l-5.555,2.425c-2.828,1.234-4.639,4.134-4.508,7.215l0.672,15.852c0.025,0.611,0.529,1.09,1.135,1.09 c0.018,0,0.033,0,0.049-0.002c0.629-0.026,1.115-0.557,1.09-1.184l-0.672-15.852c-0.043-1.021,0.223-2.013,0.721-2.865 l2.986,3.583c0.943,1.132,1.463,2.567,1.463,4.042v11.14c0,0.628,0.51,1.138,1.139,1.138c0.627,0,1.137-0.51,1.137-1.138v-11.14 c0-2.006-0.707-3.958-1.99-5.499l-3.174-3.81c0.27-0.186,0.557-0.351,0.861-0.484l4.844-2.114l3.42,5.554 c0.338,0.549,0.896,0.92,1.533,1.021c0.115,0.018,0.229,0.026,0.344,0.026c0.52,0,1.027-0.185,1.428-0.527l2.168-1.85v18.822 c0,0.628,0.51,1.138,1.139,1.138s1.137-0.51,1.137-1.138V47.982l2.168,1.85c0.402,0.342,0.91,0.527,1.43,0.527 c0.113,0,0.229-0.009,0.343-0.027c0.636-0.1,1.194-0.472,1.532-1.02l3.422-5.554l4.842,2.113 c0.307,0.134,0.594,0.299,0.863,0.485l-3.174,3.81c-1.284,1.541-1.992,3.493-1.992,5.499v11.14c0,0.628,0.51,1.138,1.139,1.138 s1.137-0.51,1.137-1.138v-11.14c0-1.474,0.521-2.909,1.464-4.042l2.986-3.584c0.499,0.853,0.765,1.844,0.722,2.865l-0.672,15.852 c-0.027,0.627,0.461,1.158,1.088,1.185c0.018,0.001,0.033,0.001,0.049,0.001c0.607,0,1.111-0.479,1.137-1.09l0.672-15.852 C95.823,47.92,94.011,45.021,91.185,43.786z M75.401,2.275c2.42,0,4.463,1.544,5.066,3.636c-1.57-0.592-3.279-0.918-5.066-0.918 s-3.496,0.326-5.066,0.918C70.938,3.819,72.979,2.275,75.401,2.275z M66.063,28.085c-0.201-1.093-1.215-1.887-2.305-1.806 c-0.096,0.006-0.195-0.001-0.297-0.025c-0.434-0.103-0.762-0.578-0.762-1.103v-0.817c0-0.528,0.354-1.003,0.805-1.083 c0.379-0.067,0.742,0.073,0.973,0.373c0.209,0.272,0.486,0.467,0.805,0.563c0.466,0.141,0.98,0.058,1.375-0.221 c0.701-0.495,1.32-1.098,1.842-1.792c0.377-0.502,0.275-1.215-0.227-1.592c-0.502-0.377-1.215-0.276-1.594,0.226 c-0.258,0.344-0.549,0.657-0.867,0.934c-0.486-0.417-1.084-0.678-1.717-0.756c-0.217-0.857-0.33-1.733-0.33-2.615 c0-6.123,5.221-11.104,11.637-11.104s11.635,4.981,11.635,11.104c0,0.88-0.11,1.755-0.328,2.61 c-0.299,0.024-0.604,0.073-0.885,0.146l-0.855-0.704c-0.43-0.354-0.971-0.53-1.518-0.498c-1.674,0.099-10.238,0.325-14.631-4.934 c-0.404-0.482-1.121-0.547-1.604-0.144c-0.482,0.403-0.547,1.121-0.143,1.603c2.166,2.594,5.345,4.348,9.445,5.213 c3.141,0.663,5.933,0.598,7.027,0.536l1.334,1.098c0.367,0.302,0.882,0.345,1.293,0.105c0.193-0.105,0.84-0.206,1.121-0.15 c0.461,0.092,0.807,0.551,0.807,1.068v0.83c0,0.526-0.326,1-0.76,1.103c-0.102,0.023-0.201,0.032-0.298,0.025 c-1.089-0.08-2.104,0.712-2.304,1.805c-0.828,4.506-4.756,7.777-9.338,7.777C70.817,35.862,66.89,32.591,66.063,28.085z M70.683,48.045l-3.422-5.555l1.754-1.753l4.711,4.711L70.683,48.045z M75.401,43.906l-4.185-4.185v-2.354 c1.306,0.497,2.718,0.77,4.185,0.77s2.878-0.272,4.184-0.77v2.354L75.401,43.906z M80.118,48.045l-3.043-2.596l4.713-4.711 l1.753,1.753L80.118,48.045z"></path> </g> </g> <g> <g> <path fill="#142667" d="M34.263,59.001c-0.546-0.401-1.316-0.284-1.719,0.263l-0.15,0.207c-0.402,0.547-0.285,1.315,0.261,1.718 c0.218,0.162,0.475,0.24,0.729,0.24c0.377,0,0.749-0.173,0.99-0.499l0.154-0.209C34.929,60.173,34.811,59.403,34.263,59.001z"></path> </g> </g> <g> <g> <path fill="#142667" d="M34.584,70.698l-3.162-5.75l2.953-4.021c0.401-0.547,0.283-1.317-0.265-1.718 c-0.547-0.402-1.316-0.284-1.718,0.263l-3.417,4.654c-0.284,0.386-0.317,0.901-0.087,1.32l3.541,6.438v0 c0.224,0.407,0.645,0.638,1.078,0.638c0.2-0.001,0.404-0.049,0.592-0.153C34.695,72.041,34.912,71.293,34.584,70.698z"></path> </g> </g> <g> <g> <path fill="#142667" d="M43.748,64.127l-3.403-4.636c-0.282-0.384-0.761-0.571-1.229-0.478c-0.468,0.091-0.84,0.445-0.955,0.908 c-0.09,0.355-0.015,0.731,0.201,1.026l2.938,4.001l-3.141,5.711c-0.1,0.182-0.152,0.386-0.152,0.593 c0,0.562,0.38,1.052,0.924,1.191c0.102,0.027,0.204,0.039,0.306,0.039c0.44,0,0.858-0.237,1.077-0.636l3.52-6.4 C44.065,65.027,44.032,64.512,43.748,64.127z"></path> </g> </g> <g> <g> <path fill="#142667" d="M45.697,44.804c-0.403-0.213-0.893-0.184-1.27,0.076c-0.731,0.504-1.409,1.038-2.017,1.586 c-3.31,2.991-6.453,2.586-6.576,2.568c-0.074-0.011-0.149-0.017-0.224-0.014c-1.309,0.033-3.666-1.162-6.16-3.121 c-0.382-0.3-0.773-0.585-1.163-0.849c-0.377-0.255-0.864-0.28-1.265-0.067c-0.402,0.213-0.653,0.631-0.653,1.086v4.218 c0,0.373,0.17,0.725,0.46,0.959c0.035,0.027,0.071,0.053,0.107,0.077l8.719,5.825c0.002,0.001,0.003,0.002,0.004,0.003 l0.023,0.016c0.205,0.136,0.441,0.204,0.679,0.204c0.199,0,0.399-0.048,0.582-0.146c0.039-0.02,0.075-0.043,0.111-0.067 c0.004-0.003,0.008-0.005,0.013-0.008c0.004-0.003,0.008-0.007,0.014-0.01l8.698-5.812c0.034-0.022,0.068-0.046,0.102-0.071 c0.299-0.234,0.474-0.591,0.474-0.969v-4.397C46.355,45.436,46.102,45.017,45.697,44.804z M43.896,49.63l-7.534,5.034 l-7.533-5.034v-1.118c1.834,1.333,4.533,2.968,6.732,2.968c0.004,0,0.01,0,0.014,0c0.738,0.082,4.505,0.304,8.321-3.043V49.63 L43.896,49.63z"></path> </g> </g> <g> <g> <path fill="#142667" d="M37.576,55.941c-0.082-0.487-0.448-0.879-0.928-0.994c-0.482-0.113-0.984,0.07-1.277,0.469l-2.826,3.849 c-0.401,0.548-0.283,1.317,0.264,1.719c0.22,0.161,0.475,0.238,0.728,0.238c0.378,0,0.751-0.173,0.991-0.502l2.812-3.829 c0.159-0.209,0.252-0.469,0.252-0.748C37.591,56.076,37.585,56.008,37.576,55.941z"></path> </g> </g> <g> <g> <path fill="#142667" d="M55.095,16.302c-0.025-0.193-0.602-4.349-4.514-5.989c0.113-0.73,0.102-1.668-0.363-2.582 c-0.621-1.227-1.851-2.026-3.653-2.376c-0.077-0.015-0.156-0.022-0.234-0.022H29.828c-6.701,0-12.153,5.451-12.153,12.153v6.475 c0,1.688,0.575,3.333,1.619,4.633c0.518,0.645,1.155,1.77,1.252,3.472c0.036,0.665,0.594,1.178,1.262,1.16 c0.666-0.019,1.194-0.564,1.194-1.229v-8.442c0.835-3.453,3.686-4.125,4.175-4.216h5.338c0.628,0,1.245-0.096,1.836-0.285 c1.015-0.326,2.625-0.925,3.798-1.37c0.784-0.298,1.652-0.31,2.444-0.031l5.715,2.006c2.858,1.054,3.368,3.562,3.43,3.956v10.133 c0,0.643,0.496,1.177,1.139,1.225c0.031,0.002,0.061,0.004,0.092,0.004c0.604,0,1.123-0.442,1.215-1.048 c0.006-0.032,0.496-3.203,2.08-5.743c0.551-0.883,0.842-1.891,0.842-2.914v-8.814C55.104,16.406,55.101,16.354,55.095,16.302z M52.646,25.271c0,0.55-0.156,1.094-0.449,1.579V23.53c0-0.045-0.002-0.088-0.008-0.132c-0.018-0.179-0.527-4.393-5.042-6.051 c-0.006-0.002-0.011-0.004-0.017-0.006l-5.724-2.009c-0.646-0.226-1.32-0.34-1.994-0.34c-0.727,0-1.451,0.131-2.139,0.393 c-1.641,0.623-2.912,1.082-3.676,1.327c-0.347,0.11-0.711,0.167-1.084,0.167h-5.438c-0.052,0-0.105,0.004-0.158,0.01 c-0.207,0.027-5.112,0.725-6.346,6.256c-0.02,0.088-0.03,0.177-0.03,0.268v2.531c-0.268-0.619-0.409-1.295-0.409-1.983v-6.475 c0-5.345,4.349-9.694,9.694-9.694h16.379c0.678,0.145,1.502,0.441,1.814,1.044c0.383,0.738-0.053,1.754-0.053,1.754 c-0.158,0.335-0.156,0.723,0.004,1.056s0.461,0.577,0.82,0.664c3.13,0.753,3.769,3.755,3.853,4.241V25.271L52.646,25.271z"></path> </g> </g> <g> <g> <path fill="#142667" d="M52.188,23.398c-0.018-0.179-0.527-4.393-5.042-6.051c-0.005-0.002-0.011-0.004-0.017-0.006l-5.724-2.009 c-1.34-0.47-2.807-0.452-4.133,0.052c-1.641,0.624-2.912,1.083-3.676,1.327c-0.347,0.111-0.711,0.168-1.084,0.168h-5.438 c-0.052,0-0.105,0.004-0.158,0.01c-0.207,0.027-5.112,0.725-6.346,6.255c-0.02,0.088-0.03,0.178-0.03,0.269v10.57 c0,0.009,0.001,0.018,0.001,0.028c0.008,0.366,0.268,9.037,6.259,13.003l0.031,0.022c0.025,0.018,0.052,0.036,0.078,0.055 c0.341,0.23,0.685,0.48,1.02,0.744c1.746,1.371,5.034,3.646,7.63,3.646c0.005,0,0.01,0,0.014,0 c0.142,0.016,0.393,0.036,0.734,0.036c1.471,0,4.608-0.385,7.75-3.226c0.527-0.477,1.12-0.942,1.764-1.386l0.092-0.064 c0.029-0.021,0.06-0.042,0.091-0.063c1.999-1.343,5.46-4.806,6.187-12.921c0.002-0.037,0.004-0.073,0.004-0.11V23.53 C52.196,23.485,52.194,23.442,52.188,23.398z M49.737,33.691c-0.67,7.324-3.791,10.163-5.103,11.044 c-0.047,0.032-0.093,0.064-0.139,0.096l-0.069,0.048c-0.73,0.503-1.409,1.038-2.016,1.587c-3.298,2.98-6.431,2.588-6.584,2.568 c-0.071-0.011-0.144-0.016-0.216-0.014c-1.309,0.034-3.665-1.162-6.159-3.121c-0.382-0.3-0.773-0.585-1.163-0.849l-0.03-0.021 c-0.03-0.021-0.059-0.042-0.094-0.065c-4.834-3.2-5.151-10.688-5.162-11V23.553c0.838-3.465,3.705-4.129,4.173-4.215h5.34 c0.628,0,1.245-0.096,1.836-0.286c1.015-0.326,2.625-0.925,3.798-1.37c0.784-0.298,1.652-0.31,2.444-0.031l5.715,2.006 c2.858,1.054,3.368,3.562,3.43,3.956V33.691L49.737,33.691z"></path> </g> </g> <g> <g> <path fill="#142667" d="M37.461,55.594c-0.191-0.383-0.568-0.639-0.995-0.675c-0.427-0.035-0.843,0.152-1.096,0.498l-2.945,4.011 c-0.401,0.547-0.284,1.316,0.263,1.718c0.219,0.161,0.475,0.24,0.727,0.24c0.377,0,0.75-0.173,0.992-0.5l2.945-3.997 c0.155-0.211,0.239-0.481,0.239-0.745C37.591,55.953,37.546,55.765,37.461,55.594z"></path> </g> </g> <g> <g> <path fill="#142667" d="M37.541,75.391c-0.462-0.483-1.225-0.508-1.719-0.057l-0.28,0.257c-0.421,0.384-0.522,1.009-0.244,1.507 l0.009,0.015c0.188,0.337,0.522,0.566,0.904,0.618c0.057,0.008,0.112,0.012,0.169,0.012c0.324,0,0.638-0.128,0.87-0.361 l0.271-0.272C37.995,76.637,38.002,75.874,37.541,75.391z"></path> </g> </g> <g> <g> <path fill="#142667" d="M37.183,75.591l-0.281-0.257c-0.493-0.452-1.257-0.426-1.718,0.057c-0.463,0.483-0.454,1.248,0.019,1.72 l0.272,0.273c0.232,0.231,0.546,0.359,0.869,0.359c0.058,0,0.116-0.003,0.174-0.012c0.384-0.055,0.718-0.286,0.904-0.625 l0.009-0.015C37.704,76.592,37.601,75.973,37.183,75.591z"></path> </g> </g> <g> <g> <path fill="#142667" d="M37.204,75.61l-0.002-0.001c-0.189-0.178-0.435-0.295-0.706-0.325c-0.362-0.039-0.715,0.083-0.972,0.324 l-0.003,0.003c-0.25,0.227-0.394,0.545-0.401,0.882c-0.008,0.335,0.124,0.66,0.362,0.897l0.014,0.014 c0.239,0.238,0.553,0.358,0.866,0.358c0.314,0,0.629-0.121,0.869-0.359l0.014-0.013c0.236-0.239,0.367-0.562,0.359-0.897 C37.597,76.154,37.451,75.836,37.204,75.61z"></path> </g> </g> <g> <g> <path fill="#142667" d="M36.76,54.954c-0.509-0.163-1.067,0.026-1.377,0.462c-0.347,0.488-0.29,1.154,0.133,1.579 c0.237,0.238,0.553,0.361,0.871,0.361c0.246,0,0.494-0.075,0.71-0.225c0.326-0.23,0.521-0.605,0.521-1.005v-0.003 C37.619,55.587,37.27,55.116,36.76,54.954z"></path> </g> </g> <g> <g> <path fill="#142667" d="M37.362,55.405l-0.011-0.014c-0.316-0.427-0.87-0.603-1.374-0.437c-0.504,0.167-0.845,0.637-0.845,1.168 v0.021c0,0.453,0.254,0.865,0.653,1.08c0.181,0.097,0.38,0.144,0.579,0.144c0.24,0,0.479-0.069,0.687-0.206 c0.28-0.186,0.474-0.479,0.532-0.812C37.641,56.018,37.561,55.676,37.362,55.405z"></path> </g> </g> <g> <g> <path fill="#142667" d="M50.989,51.542c-0.129-0.337-0.396-0.601-0.736-0.721l-4.713-1.69c-0.038-0.014-0.078-0.026-0.117-0.036 c-0.337-0.084-0.693-0.022-0.981,0.171l-8.735,5.836c-0.002,0.001-0.005,0.003-0.007,0.005l0.686,1.019l-0.7-1.009 c-0.257,0.169-0.44,0.43-0.515,0.727c-0.041,0.164-0.048,0.335-0.021,0.501c0.031,0.189,0.107,0.37,0.222,0.525l6.396,8.71 c0.232,0.316,0.601,0.502,0.99,0.502c0.027,0,0.054-0.001,0.081-0.003c0.419-0.027,0.795-0.267,0.997-0.635l7.083-12.875 C51.091,52.255,51.116,51.879,50.989,51.542z M42.609,62.574l-4.496-6.123l7.18-4.797l2.774,0.995L42.609,62.574z"></path> </g> </g> <g> <g> <path fill="#142667" d="M37.574,55.931c-0.059-0.33-0.248-0.622-0.526-0.809l-8.765-5.856c-0.279-0.188-0.622-0.25-0.95-0.178 c-0.05,0.011-0.101,0.026-0.148,0.043l-4.715,1.69c-0.339,0.121-0.607,0.385-0.734,0.721c-0.128,0.337-0.101,0.713,0.073,1.029 l7.081,12.875c0.202,0.368,0.578,0.607,0.997,0.634c0.027,0.002,0.054,0.003,0.08,0.003c0.391,0,0.759-0.186,0.992-0.502 l3.417-4.654c0.003-0.003,0.005-0.007,0.008-0.011l2.97-4.045C37.551,56.601,37.631,56.262,37.574,55.931z M32.393,59.472 c-0.004,0.003-0.006,0.007-0.009,0.011l-2.27,3.091l-5.458-9.924l2.774-0.995l7.18,4.797L32.393,59.472z"></path> </g> </g> <path fill="#142667" d="M72.663,72.533l-1.587-9.578c-0.5-3.019-2.597-5.541-5.474-6.581l-15.346-5.551 c-0.473-0.171-1.002-0.037-1.336,0.338c-0.335,0.375-0.407,0.916-0.183,1.366l3.205,6.425l-3.144,0.049 c-0.427,0.007-0.819,0.234-1.038,0.601c-0.218,0.367-0.23,0.82-0.032,1.199l1.289,2.462L35.822,75.334 c-0.014,0.012-0.026,0.025-0.04,0.037l-0.271,0.273c-0.387,0.386-0.472,0.981-0.209,1.459l0.009,0.018 c0.216,0.394,0.629,0.64,1.079,0.64h31.84c1.322,0,2.572-0.579,3.428-1.587C72.513,75.164,72.878,73.837,72.663,72.533z M69.78,74.583c-0.387,0.456-0.951,0.718-1.551,0.718H39.5l11.875-10.863c0.412-0.377,0.52-0.984,0.26-1.479l-0.803-1.531 l3.102-0.048c0.422-0.006,0.811-0.229,1.031-0.59c0.219-0.361,0.238-0.81,0.049-1.188l-2.703-5.422l12.455,4.506 c2.041,0.738,3.529,2.528,3.885,4.67l1.586,9.578v0.001C70.335,73.526,70.169,74.125,69.78,74.583z"></path> <path fill="#FFFFFF" d="M70.237,72.934l-1.586-9.578c-0.355-2.142-1.844-3.932-3.885-4.67L52.312,54.18l2.703,5.422 c0.189,0.378,0.17,0.827-0.049,1.188c-0.221,0.36-0.609,0.584-1.031,0.59l-3.102,0.048l0.803,1.531 c0.26,0.495,0.152,1.102-0.26,1.479L39.5,75.301h28.729c0.6,0,1.164-0.262,1.551-0.718C70.169,74.125,70.335,73.526,70.237,72.934 L70.237,72.934z"></path> <g> <g> <path fill="#142667" d="M37.214,75.62L37.2,75.607c-0.486-0.441-1.233-0.422-1.697,0.045l-0.013,0.012 c-0.351,0.353-0.453,0.881-0.263,1.34s0.639,0.757,1.135,0.757h0.026c0.509,0,0.965-0.313,1.147-0.787 C37.719,76.498,37.591,75.96,37.214,75.62z"></path> </g> </g> <g> <g> <path fill="#142667" d="M37.175,75.584c-0.279-0.252-0.657-0.362-1.028-0.298c-0.37,0.062-0.691,0.291-0.872,0.62l-0.009,0.015 c-0.259,0.474-0.18,1.06,0.194,1.447l0.005,0.005c0.24,0.249,0.562,0.374,0.884,0.374c0.296,0,0.594-0.106,0.828-0.32 l0.014-0.012c0.111-0.101,0.203-0.223,0.271-0.359C37.708,76.561,37.586,75.954,37.175,75.584z"></path> </g> </g> <g> <g> <path fill="#142667" d="M37.229,75.659l-0.006-0.005c-0.003-0.004-0.007-0.007-0.009-0.01l-0.273-0.273 c-0.013-0.012-0.026-0.025-0.039-0.037L23.707,63.263l1.289-2.462c0.198-0.378,0.186-0.833-0.032-1.199 c-0.219-0.367-0.611-0.594-1.038-0.601l-3.145-0.049l3.204-6.425c0.225-0.449,0.151-0.991-0.182-1.366 c-0.335-0.375-0.864-0.51-1.336-0.338L7.122,56.374c-2.877,1.041-4.975,3.562-5.475,6.581L0.06,72.533 c-0.215,1.306,0.151,2.631,1.007,3.641c0.855,1.009,2.105,1.587,3.427,1.587h31.868c0.498,0,0.946-0.301,1.136-0.76 C37.689,76.54,37.582,76.011,37.229,75.659z M4.494,75.301c-0.599,0-1.164-0.262-1.552-0.718 c-0.387-0.456-0.553-1.057-0.455-1.649l1.587-9.578c0.354-2.142,1.843-3.932,3.885-4.67l12.454-4.506l-2.703,5.422 c-0.188,0.378-0.17,0.827,0.05,1.188c0.219,0.36,0.608,0.583,1.031,0.59l3.101,0.048l-0.803,1.531 c-0.259,0.495-0.152,1.102,0.259,1.478l11.876,10.864H4.494z"></path> </g> </g> <g> <g> <path fill="#142667" d="M40.547,60.517c0.089-0.354,0.015-0.731-0.202-1.026l-2.992-4.075c-0.314-0.429-0.869-0.598-1.373-0.433 c-0.273,0.089-0.498,0.27-0.647,0.5l-2.938,3.987c-0.042,0.057-0.079,0.118-0.111,0.181c-0.201,0.402-0.166,0.883,0.091,1.253 l1.251,1.796l-1.333,8.4c-0.042,0.27,0.006,0.546,0.138,0.785l2.854,5.189c0.216,0.394,0.629,0.638,1.077,0.638 c0.449,0,0.861-0.244,1.077-0.638l2.876-5.228c0.101-0.181,0.152-0.385,0.152-0.593v0c0-0.065-0.005-0.129-0.015-0.193 l-1.326-8.36l1.236-1.776C40.448,60.799,40.51,60.661,40.547,60.517z M36.362,73.931l-1.574-2.863l1.344-8.473 c0.05-0.314-0.024-0.634-0.205-0.895l-1.03-1.48l1.47-1.994l1.477,2.012L36.825,61.7c-0.182,0.26-0.255,0.581-0.205,0.895 l1.338,8.434L36.362,73.931z"></path> </g> </g> </g> </svg> 